<svg height="512" viewBox="0 0 24 24" width="512" xmlns="http://www.w3.org/2000/svg" xmlns:xlink="http://www.w3.org/1999/xlink"><linearGradient id="New_Gradient_Swatch" gradientUnits="userSpaceOnUse" x1="17.73" x2="2.631" y1="19.55" y2="4.451"><stop offset="0" stop-color="#eb595a"/><stop offset="1" stop-color="#f18875"/></linearGradient><linearGradient id="New_Gradient_Swatch_copy" gradientUnits="userSpaceOnUse" x1="23.389" x2="12.335" y1="17.529" y2="6.475"><stop offset="0" stop-color="#629ad3"/><stop offset="1" stop-color="#79aed4"/></linearGradient><g id="_01" data-name="01"><path d="m15.28 23.5h-7.47c-4.441 0-7.31-2.869-7.31-7.31v-8.38a7.593 7.593 0 0 1 1.336-4.561 5.76 5.76 0 0 1 1.441-1.434 7.578 7.578 0 0 1 4.533-1.315h7.47v-.068l1.075.068h.425v.027l.095.006c4.087.267 6.625 3.05 6.625 7.277v8.38a7.593 7.593 0 0 1 -1.336 4.561 5.76 5.76 0 0 1 -1.441 1.434 7.231 7.231 0 0 1 -3.846 1.293h-.1v.022h-.251l-1.249.081z" fill="#fff"/><path d="m7.81 2a6.143 6.143 0 0 0 -3.68 1.05 4.264 4.264 0 0 0 -1.08 1.08 6.143 6.143 0 0 0 -1.05 3.68v8.38c0 3.64 2.17 5.81 5.81 5.81h7.47v-20zm4.306 10.53-2.56 2.56a.75.75 0 0 1 -1.056-1.061l2.025-2.029-2.025-2.029a.75.75 0 1 1 1.056-1.061l2.56 2.56a.749.749 0 0 1 0 1.06z" fill="url(#New_Gradient_Swatch)"/><path d="m22 7.81v8.38a6.143 6.143 0 0 1 -1.05 3.68 4.264 4.264 0 0 1 -1.08 1.08 5.779 5.779 0 0 1 -3.09 1.03v-19.95c3.28.21 5.22 2.34 5.22 5.78z" fill="url(#New_Gradient_Swatch_copy)"/></g></svg>